<svg width="32" height="32" viewBox="0 0 32 32" fill="none" xmlns="http://www.w3.org/2000/svg">
<path d="M21.3333 30.3332H10.6666C4.50664 30.3332 3.35998 27.4665 3.06664 24.6799L2.06664 13.9999C1.91998 12.5999 1.87998 10.5332 3.26664 8.98652C4.46664 7.65318 6.45331 7.01318 9.33331 7.01318H22.6666C25.56 7.01318 27.5466 7.66652 28.7333 8.98652C30.12 10.5332 30.08 12.5999 29.9333 14.0132L28.9333 24.6665C28.64 27.4665 27.4933 30.3332 21.3333 30.3332ZM9.33331 8.99985C7.07998 8.99985 5.53331 9.43985 4.74664 10.3198C4.09331 11.0398 3.87998 12.1465 4.05331 13.7999L5.05331 24.4799C5.27998 26.5865 5.85331 28.3332 10.6666 28.3332H21.3333C26.1333 28.3332 26.72 26.5865 26.9466 24.4665L27.9466 13.8132C28.12 12.1465 27.9066 11.0398 27.2533 10.3198C26.4666 9.43985 24.92 8.99985 22.6666 8.99985H9.33331Z" fill="#F4AE3B"/>
<path d="M21.3337 8.99984C20.787 8.99984 20.3337 8.5465 20.3337 7.99984V6.93317C20.3337 4.55984 20.3337 3.6665 17.067 3.6665H14.9337C11.667 3.6665 11.667 4.55984 11.667 6.93317V7.99984C11.667 8.5465 11.2137 8.99984 10.667 8.99984C10.1203 8.99984 9.66699 8.5465 9.66699 7.99984V6.93317C9.66699 4.5865 9.66699 1.6665 14.9337 1.6665H17.067C22.3337 1.6665 22.3337 4.5865 22.3337 6.93317V7.99984C22.3337 8.5465 21.8803 8.99984 21.3337 8.99984Z" fill="#F4AE3B"/>
<path d="M15.9997 22.3333C12.333 22.3333 12.333 20.0667 12.333 18.7067V17.3333C12.333 15.4533 12.7863 15 14.6663 15H17.333C19.213 15 19.6663 15.4533 19.6663 17.3333V18.6667C19.6663 20.0533 19.6663 22.3333 15.9997 22.3333ZM14.333 17C14.333 17.1067 14.333 17.2267 14.333 17.3333V18.7067C14.333 20.08 14.333 20.3333 15.9997 20.3333C17.6663 20.3333 17.6663 20.12 17.6663 18.6933V17.3333C17.6663 17.2267 17.6663 17.1067 17.6663 17C17.5597 17 17.4397 17 17.333 17H14.6663C14.5597 17 14.4397 17 14.333 17Z" fill="#F4AE3B"/>
<path d="M18.667 19.6935C18.1737 19.6935 17.7337 19.3202 17.6803 18.8135C17.6137 18.2668 18.0003 17.7602 18.547 17.6935C22.067 17.2535 25.4403 15.9202 28.2803 13.8535C28.7203 13.5202 29.347 13.6268 29.6803 14.0802C30.0003 14.5202 29.907 15.1468 29.4537 15.4802C26.3337 17.7468 22.6537 19.2002 18.787 19.6935C18.747 19.6935 18.707 19.6935 18.667 19.6935Z" fill="#F4AE3B"/>
<path d="M13.3333 19.7069C13.2933 19.7069 13.2533 19.7069 13.2133 19.7069C9.55999 19.2935 5.99999 17.9602 2.91999 15.8535C2.46665 15.5469 2.34665 14.9202 2.65332 14.4669C2.95999 14.0135 3.58665 13.8935 4.03999 14.2002C6.85332 16.1202 10.0933 17.3335 13.4267 17.7202C13.9733 17.7869 14.3733 18.2802 14.3067 18.8269C14.2667 19.3335 13.84 19.7069 13.3333 19.7069Z" fill="#F4AE3B"/>
</svg>
