<svg width="32" height="32" viewBox="0 0 32 32" fill="none" xmlns="http://www.w3.org/2000/svg">
<path d="M11.9999 23.6669C11.8533 23.6669 11.6933 23.6269 11.5599 23.5602C10.5333 23.0402 9.65328 22.2669 9.01328 21.3069C8.47995 20.5069 8.47995 19.4802 9.01328 18.6802C9.65328 17.7202 10.5333 16.9469 11.5599 16.4402C12.0533 16.1869 12.6533 16.4002 12.9066 16.8936C13.1599 17.3869 12.9599 17.9869 12.4533 18.2402C11.7333 18.6002 11.1199 19.1469 10.6799 19.8136C10.5999 19.9336 10.5999 20.0936 10.6799 20.2269C11.1199 20.8936 11.7333 21.4402 12.4533 21.8002C12.9466 22.0536 13.1466 22.6536 12.9066 23.1469C12.7199 23.4669 12.3599 23.6669 11.9999 23.6669Z" fill="#F4AE3B"/>
<path d="M20.2803 23.6667C19.907 23.6667 19.5603 23.4667 19.387 23.1201C19.1336 22.6267 19.3336 22.0267 19.8403 21.7734C20.5603 21.4134 21.1736 20.8667 21.6136 20.2001C21.6936 20.0801 21.6936 19.9201 21.6136 19.7867C21.1736 19.1201 20.5603 18.5734 19.8403 18.2134C19.347 17.9601 19.147 17.3601 19.387 16.8667C19.6403 16.3734 20.2403 16.1734 20.7336 16.4134C21.7603 16.9334 22.6403 17.7067 23.2803 18.6667C23.8136 19.4667 23.8136 20.4934 23.2803 21.2934C22.6403 22.2534 21.7603 23.0267 20.7336 23.5334C20.5736 23.6267 20.427 23.6667 20.2803 23.6667Z" fill="#F4AE3B"/>
<path d="M20.0003 30.3332H12.0003C4.76033 30.3332 1.66699 27.2398 1.66699 19.9998V11.9998C1.66699 4.75984 4.76033 1.6665 12.0003 1.6665H20.0003C27.2403 1.6665 30.3337 4.75984 30.3337 11.9998V19.9998C30.3337 27.2398 27.2403 30.3332 20.0003 30.3332ZM12.0003 3.6665C5.85366 3.6665 3.66699 5.85317 3.66699 11.9998V19.9998C3.66699 26.1465 5.85366 28.3332 12.0003 28.3332H20.0003C26.147 28.3332 28.3337 26.1465 28.3337 19.9998V11.9998C28.3337 5.85317 26.147 3.6665 20.0003 3.6665H12.0003Z" fill="#F4AE3B"/>
<path d="M2.97363 11.6798C2.42697 11.6798 1.97363 11.2265 1.97363 10.6798C1.97363 10.1332 2.41363 9.67984 2.97363 9.67984L28.6003 9.6665C29.147 9.6665 29.6003 10.1198 29.6003 10.6665C29.6003 11.2132 29.1603 11.6665 28.6003 11.6665L2.97363 11.6798Z" fill="#F4AE3B"/>
</svg>
