<svg width="32" height="32" viewBox="0 0 32 32" fill="none" xmlns="http://www.w3.org/2000/svg">
<path d="M22.667 28.0535H9.33366C5.10699 28.0535 1.66699 24.6135 1.66699 20.3868V7.61346C1.66699 5.88013 2.46699 5.28013 2.94699 5.08013C3.42699 4.88013 4.41366 4.73346 5.64033 5.96013L9.09366 9.41346C9.22699 9.5468 9.44033 9.5468 9.56033 9.41346L14.347 4.6268C15.227 3.7468 16.7737 3.7468 17.6403 4.6268L22.427 9.41346C22.5603 9.5468 22.7737 9.5468 22.8937 9.41346L26.347 5.96013C27.5737 4.73346 28.5603 4.89346 29.0403 5.08013C29.5203 5.28013 30.3203 5.8668 30.3203 7.61346V20.4001C30.3337 24.9735 27.2537 28.0535 22.667 28.0535ZM3.74699 6.9868C3.70699 7.09346 3.66699 7.29346 3.66699 7.61346V20.4001C3.66699 23.5201 6.21366 26.0668 9.33366 26.0668H22.667C26.107 26.0668 28.3337 23.8401 28.3337 20.4001V7.61346C28.3337 7.29346 28.2937 7.1068 28.2537 7.00013C28.147 7.05346 27.987 7.16013 27.7603 7.3868L24.307 10.8401C23.427 11.7201 21.8803 11.7201 21.0137 10.8401L16.227 6.05346C16.0937 5.92013 15.8803 5.92013 15.7603 6.05346L10.987 10.8268C10.107 11.7068 8.56033 11.7068 7.69366 10.8268L4.24033 7.37346C4.01366 7.1468 3.84033 7.04013 3.74699 6.9868Z" fill="#F4AE3B"/>
</svg>
