<svg width="56" height="56" viewBox="0 0 56 56" fill="none" xmlns="http://www.w3.org/2000/svg">
<path d="M35.0003 53.0832H21.0003C8.33033 53.0832 2.91699 47.6698 2.91699 34.9998V20.9998C2.91699 8.32984 8.33033 2.9165 21.0003 2.9165H35.0003C47.6703 2.9165 53.0837 8.32984 53.0837 20.9998V34.9998C53.0837 47.6698 47.6703 53.0832 35.0003 53.0832ZM21.0003 6.4165C10.2437 6.4165 6.41699 10.2432 6.41699 20.9998V34.9998C6.41699 45.7565 10.2437 49.5832 21.0003 49.5832H35.0003C45.757 49.5832 49.5837 45.7565 49.5837 34.9998V20.9998C49.5837 10.2432 45.757 6.4165 35.0003 6.4165H21.0003Z" fill="#292D32"/>
<path d="M28 53.0832C27.0433 53.0832 26.25 52.2898 26.25 51.3332V4.6665C26.25 3.70984 27.0433 2.9165 28 2.9165C28.9567 2.9165 29.75 3.70984 29.75 4.6665V51.3332C29.75 52.2898 28.9567 53.0832 28 53.0832Z" fill="#292D32"/>
<path d="M28.0003 23.9165H4.66699C3.71033 23.9165 2.91699 23.1232 2.91699 22.1665C2.91699 21.2098 3.71033 20.4165 4.66699 20.4165H28.0003C28.957 20.4165 29.7503 21.2098 29.7503 22.1665C29.7503 23.1232 28.957 23.9165 28.0003 23.9165Z" fill="#292D32"/>
<path d="M51.3333 35.5835H28C27.0433 35.5835 26.25 34.7902 26.25 33.8335C26.25 32.8768 27.0433 32.0835 28 32.0835H51.3333C52.29 32.0835 53.0833 32.8768 53.0833 33.8335C53.0833 34.7902 52.29 35.5835 51.3333 35.5835Z" fill="#292D32"/>
</svg>
