<svg width="100" height="100" viewBox="0 0 100 100" fill="none" xmlns="http://www.w3.org/2000/svg">
<path d="M50 0L58.3889 7.82624L69.1342 3.80602L73.8895 14.2468L85.3553 14.6447L85.7532 26.1105L96.194 30.8658L92.1738 41.6111L100 50L92.1738 58.3889L96.194 69.1342L85.7532 73.8895L85.3553 85.3553L73.8895 85.7532L69.1342 96.194L58.3889 92.1738L50 100L41.6111 92.1738L30.8658 96.194L26.1105 85.7532L14.6447 85.3553L14.2468 73.8895L3.80602 69.1342L7.82624 58.3889L0 50L7.82624 41.6111L3.80602 30.8658L14.2468 26.1105L14.6447 14.6447L26.1105 14.2468L30.8658 3.80602L41.6111 7.82624L50 0Z" fill="#F4AE3B"/>
<path d="M45.5322 43.3399C46.0035 37.9399 48.8162 35.7349 54.9738 35.7349H55.1714C61.9675 35.7349 64.689 38.4199 64.689 45.1249V54.9049C64.689 61.6099 61.9675 64.2949 55.1714 64.2949H54.9738C48.8619 64.2949 46.0492 62.1199 45.5474 56.8099" stroke="white" stroke-width="2.5" stroke-linecap="round" stroke-linejoin="round"/>
<path d="M35.041 50H54.6235" stroke="white" stroke-width="2.5" stroke-linecap="round" stroke-linejoin="round"/>
<path d="M51.2334 44.9751L56.3267 50.0001L51.2334 55.0251" stroke="white" stroke-width="2.5" stroke-linecap="round" stroke-linejoin="round"/>
</svg>
