<svg width="56" height="56" viewBox="0 0 56 56" fill="none" xmlns="http://www.w3.org/2000/svg">
<circle cx="28" cy="28" r="28" fill="#0C75FF"/>
<path d="M31 38.75H25C19.57 38.75 17.25 36.43 17.25 31V25C17.25 19.57 19.57 17.25 25 17.25H30C30.41 17.25 30.75 17.59 30.75 18C30.75 18.41 30.41 18.75 30 18.75H25C20.39 18.75 18.75 20.39 18.75 25V31C18.75 35.61 20.39 37.25 25 37.25H31C35.61 37.25 37.25 35.61 37.25 31V26C37.25 25.59 37.59 25.25 38 25.25C38.41 25.25 38.75 25.59 38.75 26V31C38.75 36.43 36.43 38.75 31 38.75Z" fill="white"/>
<path d="M38 26.75H34C30.58 26.75 29.25 25.42 29.25 22V18C29.25 17.7 29.43 17.42 29.71 17.31C29.99 17.19 30.31 17.26 30.53 17.47L38.53 25.47C38.74 25.68 38.81 26.01 38.69 26.29C38.57 26.57 38.3 26.75 38 26.75ZM30.75 19.81V22C30.75 24.58 31.42 25.25 34 25.25H36.19L30.75 19.81Z" fill="white"/>
<path d="M25.4204 34.9501C24.5504 34.9501 22.5304 33.8901 21.9104 31.9501C21.4804 30.6101 21.9804 28.8601 23.5304 28.3601C24.1804 28.1501 24.8704 28.2401 25.4204 28.5801C25.9604 28.2401 26.6604 28.1501 27.3204 28.3601C28.8704 28.8601 29.3704 30.6101 28.9404 31.9501C28.3104 33.9301 26.1904 34.9501 25.4204 34.9501ZM23.3304 31.5001C23.7504 32.8101 25.1704 33.4301 25.4304 33.4501C25.7104 33.4201 27.1104 32.7301 27.5004 31.5001C27.7104 30.8401 27.5004 30.0001 26.8504 29.7901C26.5804 29.7001 26.2104 29.7501 26.0404 30.0101C25.9004 30.2201 25.6804 30.3401 25.4304 30.3501C25.1604 30.3501 24.9504 30.2401 24.8104 30.0401C24.6004 29.7501 24.2404 29.7101 23.9804 29.8001C23.3404 30.0001 23.1204 30.8401 23.3304 31.5001Z" fill="white"/>
</svg>
