<svg width="159" height="23" viewBox="0 0 159 23" fill="none" xmlns="http://www.w3.org/2000/svg">
<path d="M14.792 22H9.096L0.84 0.655998H6.024L11.944 17.072L17.832 0.655998H23.016L14.792 22ZM25.9928 14.256C25.9928 9.776 29.2888 6.16 33.9928 6.16C38.6008 6.16 41.7368 9.616 41.7368 14.672V15.568H30.2488C30.5048 17.52 32.0728 19.152 34.6968 19.152C36.1368 19.152 37.8328 18.576 38.8248 17.616L40.6168 20.24C39.0488 21.68 36.6488 22.384 34.2488 22.384C29.5448 22.384 25.9928 19.216 25.9928 14.256ZM33.9928 9.392C31.4648 9.392 30.3768 11.28 30.1848 12.816H37.8008C37.7048 11.344 36.6808 9.392 33.9928 9.392ZM63.1683 22H59.1043V12.656C59.1043 10.512 57.9843 9.776 56.2563 9.776C54.6562 9.776 53.4083 10.672 52.7363 11.6V22H48.6723V6.544H52.7363V8.56C53.7283 7.376 55.6163 6.16 58.1443 6.16C61.5363 6.16 63.1683 8.08 63.1683 11.088V22ZM76.3875 22.384C73.5395 22.384 72.0035 20.912 72.0035 18.16V10.096H69.4435V6.544H72.0035V2.32H76.0995V6.544H79.2355V10.096H76.0995V17.072C76.0995 18.032 76.6115 18.768 77.5075 18.768C78.1155 18.768 78.6915 18.544 78.9155 18.32L79.7795 21.392C79.1715 21.936 78.0835 22.384 76.3875 22.384ZM100.512 22H96.448V20.048C95.392 21.232 93.536 22.384 91.008 22.384C87.616 22.384 86.016 20.528 86.016 17.52V6.544H90.08V15.92C90.08 18.064 91.2 18.768 92.928 18.768C94.496 18.768 95.744 17.904 96.448 17.008V6.544H100.512V22ZM112.611 22H108.547V6.544H112.611V8.656C113.699 7.28 115.619 6.192 117.539 6.192V10.16C117.251 10.096 116.867 10.064 116.419 10.064C115.075 10.064 113.283 10.8 112.611 11.792V22ZM123.087 14.256C123.087 9.776 126.383 6.16 131.087 6.16C135.695 6.16 138.831 9.616 138.831 14.672V15.568H127.343C127.599 17.52 129.167 19.152 131.791 19.152C133.231 19.152 134.927 18.576 135.919 17.616L137.711 20.24C136.143 21.68 133.743 22.384 131.343 22.384C126.639 22.384 123.087 19.216 123.087 14.256ZM131.087 9.392C128.559 9.392 127.471 11.28 127.279 12.816H134.895C134.799 11.344 133.775 9.392 131.087 9.392Z" fill="#0C75FF"/>
<path d="M158.95 12.464H153.222V18.96H150.438V12.464H144.678V9.936H150.438V3.696H153.222V9.936H158.95V12.464Z" fill="#F4AE3B"/>
</svg>
