<svg width="56" height="56" viewBox="0 0 56 56" fill="none" xmlns="http://www.w3.org/2000/svg">
<path d="M28.0003 53.0832H21.0003C8.33033 53.0832 2.91699 47.6698 2.91699 34.9998V20.9998C2.91699 8.32984 8.33033 2.9165 21.0003 2.9165H35.0003C47.6703 2.9165 53.0837 8.32984 53.0837 20.9998V27.9998C53.0837 28.9565 52.2903 29.7498 51.3337 29.7498C50.377 29.7498 49.5837 28.9565 49.5837 27.9998V20.9998C49.5837 10.2432 45.757 6.4165 35.0003 6.4165H21.0003C10.2437 6.4165 6.41699 10.2432 6.41699 20.9998V34.9998C6.41699 45.7565 10.2437 49.5832 21.0003 49.5832H28.0003C28.957 49.5832 29.7503 50.3765 29.7503 51.3332C29.7503 52.2898 28.957 53.0832 28.0003 53.0832Z" fill="#292D32"/>
<path d="M38.1968 53.1299C38.1735 53.1299 38.1735 53.1299 38.1502 53.1299C35.7935 53.1066 33.8335 51.66 33.1335 49.3967L28.8168 35.5133C28.2335 33.6 28.7235 31.5466 30.1468 30.1699C31.5468 28.7933 33.5768 28.2799 35.4435 28.8633L49.3502 33.18C51.5902 33.88 53.0602 35.8399 53.0835 38.1966C53.1068 40.5299 51.6835 42.5133 49.4435 43.26L45.6402 44.5433C45.1035 44.7299 44.6835 45.1266 44.5202 45.6633L43.2135 49.4899C42.4902 51.7066 40.5302 53.1299 38.1968 53.1299ZM33.8568 32.1299C33.2268 32.1299 32.8068 32.4799 32.6202 32.6433C32.1302 33.1333 31.9668 33.81 32.1768 34.4866L36.4935 48.37C36.8668 49.56 37.8468 49.6066 38.2202 49.6299C38.5468 49.6299 39.5502 49.5366 39.9235 48.3933L41.2302 44.5666C41.7435 43.0033 43.0035 41.7667 44.5668 41.23L48.3702 39.9466C49.5368 39.5733 49.6068 38.5467 49.6068 38.2433C49.6068 37.94 49.5135 36.9133 48.3468 36.54L34.4402 32.2233C34.2068 32.1533 34.0202 32.1299 33.8568 32.1299Z" fill="#292D32"/>
</svg>
