<svg width="32" height="32" viewBox="0 0 32 32" fill="none" xmlns="http://www.w3.org/2000/svg">
<path d="M9.17285 25.1999C8.62618 25.1999 8.17285 24.7466 8.17285 24.1999V21.4399C8.17285 20.8933 8.62618 20.4399 9.17285 20.4399C9.71952 20.4399 10.1729 20.8933 10.1729 21.4399V24.1999C10.1729 24.7599 9.71952 25.1999 9.17285 25.1999Z" fill="#F4AE3B"/>
<path d="M16 25.1998C15.4533 25.1998 15 24.7465 15 24.1998V18.6665C15 18.1198 15.4533 17.6665 16 17.6665C16.5467 17.6665 17 18.1198 17 18.6665V24.1998C17 24.7598 16.5467 25.1998 16 25.1998Z" fill="#F4AE3B"/>
<path d="M22.8271 25.2001C22.2805 25.2001 21.8271 24.7467 21.8271 24.2001V15.9067C21.8271 15.3601 22.2805 14.9067 22.8271 14.9067C23.3738 14.9067 23.8271 15.3601 23.8271 15.9067V24.2001C23.8271 24.7601 23.3871 25.2001 22.8271 25.2001Z" fill="#F4AE3B"/>
<path d="M9.17343 17.5734C8.7201 17.5734 8.3201 17.2667 8.2001 16.8134C8.06676 16.2801 8.38676 15.7334 8.93343 15.6001C13.8401 14.3734 18.1601 11.6934 21.4534 7.86672L22.0668 7.14672C22.4268 6.73339 23.0534 6.68006 23.4801 7.04006C23.8934 7.40006 23.9468 8.02672 23.5868 8.45339L22.9734 9.17339C19.4134 13.3334 14.7201 16.2267 9.41343 17.5467C9.33343 17.5734 9.25343 17.5734 9.17343 17.5734Z" fill="#F4AE3B"/>
<path d="M22.8266 12.6931C22.2799 12.6931 21.8266 12.2398 21.8266 11.6931V8.7998H18.9199C18.3733 8.7998 17.9199 8.34647 17.9199 7.7998C17.9199 7.25314 18.3733 6.7998 18.9199 6.7998H22.8266C23.3733 6.7998 23.8266 7.25314 23.8266 7.7998V11.7065C23.8266 12.2531 23.3866 12.6931 22.8266 12.6931Z" fill="#F4AE3B"/>
<path d="M20.0003 30.3332H12.0003C4.76033 30.3332 1.66699 27.2398 1.66699 19.9998V11.9998C1.66699 4.75984 4.76033 1.6665 12.0003 1.6665H20.0003C27.2403 1.6665 30.3337 4.75984 30.3337 11.9998V19.9998C30.3337 27.2398 27.2403 30.3332 20.0003 30.3332ZM12.0003 3.6665C5.85366 3.6665 3.66699 5.85317 3.66699 11.9998V19.9998C3.66699 26.1465 5.85366 28.3332 12.0003 28.3332H20.0003C26.147 28.3332 28.3337 26.1465 28.3337 19.9998V11.9998C28.3337 5.85317 26.147 3.6665 20.0003 3.6665H12.0003Z" fill="#F4AE3B"/>
</svg>
